<svg width="46" height="45" viewBox="0 0 46 45" fill="none" xmlns="http://www.w3.org/2000/svg">
<path fill-rule="evenodd" clip-rule="evenodd" d="M13.4785 20.9175C13.4785 16.7944 16.8374 13.44 20.9661 13.44C25.0949 13.44 28.4557 16.7944 28.4557 20.9175C28.4557 25.0406 25.0949 28.395 20.9661 28.395C16.8374 28.395 13.4785 25.0406 13.4785 20.9175ZM34.8281 32.1094L30.1229 27.4106C31.4316 25.5731 32.2108 23.3363 32.2108 20.9175C32.2108 14.7263 27.1658 9.69 20.9661 9.69C14.7683 9.69 9.72336 14.7263 9.72336 20.9175C9.72336 27.1088 14.7683 32.145 20.9661 32.145C23.3882 32.145 25.63 31.3688 27.4681 30.0619L32.1732 34.7606C32.5394 35.1263 33.02 35.31 33.5007 35.31C33.9813 35.31 34.462 35.1263 34.8281 34.7606C35.5622 34.0275 35.5622 32.8406 34.8281 32.1094Z" fill="black"/>
<mask id="mask0" mask-type="alpha" maskUnits="userSpaceOnUse" x="9" y="9" width="27" height="27">
<path fill-rule="evenodd" clip-rule="evenodd" d="M13.4785 20.9175C13.4785 16.7944 16.8374 13.44 20.9661 13.44C25.0949 13.44 28.4557 16.7944 28.4557 20.9175C28.4557 25.0406 25.0949 28.395 20.9661 28.395C16.8374 28.395 13.4785 25.0406 13.4785 20.9175ZM34.8281 32.1094L30.1229 27.4106C31.4316 25.5731 32.2108 23.3363 32.2108 20.9175C32.2108 14.7263 27.1658 9.69 20.9661 9.69C14.7683 9.69 9.72336 14.7263 9.72336 20.9175C9.72336 27.1088 14.7683 32.145 20.9661 32.145C23.3882 32.145 25.63 31.3688 27.4681 30.0619L32.1732 34.7606C32.5394 35.1263 33.02 35.31 33.5007 35.31C33.9813 35.31 34.462 35.1263 34.8281 34.7606C35.5622 34.0275 35.5622 32.8406 34.8281 32.1094Z" fill="white"/>
</mask>
<g mask="url(#mask0)">
<rect x="-71.3265" y="-64.4297" width="180.245" height="180" fill="#CACDD4"/>
</g>
</svg>
